<svg width="22" height="28" viewBox="0 0 22 28" fill="none" xmlns="http://www.w3.org/2000/svg">
<path d="M19 6.00002H16.3333C16.3333 3.05335 13.9466 0.666687 11 0.666687C8.05331 0.666687 5.66665 3.05335 5.66665 6.00002H2.99998C1.53331 6.00002 0.333313 7.20002 0.333313 8.66669V24.6667C0.333313 26.1334 1.53331 27.3334 2.99998 27.3334H19C20.4666 27.3334 21.6666 26.1334 21.6666 24.6667V8.66669C21.6666 7.20002 20.4666 6.00002 19 6.00002ZM11 3.33335C12.4666 3.33335 13.6666 4.53335 13.6666 6.00002H8.33331C8.33331 4.53335 9.53331 3.33335 11 3.33335ZM19 24.6667H2.99998V8.66669H5.66665V11.3334C5.66665 12.0667 6.26665 12.6667 6.99998 12.6667C7.73331 12.6667 8.33331 12.0667 8.33331 11.3334V8.66669H13.6666V11.3334C13.6666 12.0667 14.2666 12.6667 15 12.6667C15.7333 12.6667 16.3333 12.0667 16.3333 11.3334V8.66669H19V24.6667Z" fill="#002F52"/>
</svg>
